<?xml version="1.0" encoding="UTF-8"?>
<svg version="1.1" xmlns="http://www.w3.org/2000/svg" width="750" height="750">
<path d="M0 0 C3.49431702 0.01073073 6.98812017 0.00002904 10.48242188 -0.01269531 C44.61639426 -0.03314202 44.61639426 -0.03314202 54.49804688 3.26074219 C54.49804688 248.78074219 54.49804688 494.30074219 54.49804688 747.26074219 C42.32404124 749.28974313 30.77332485 750.41149923 18.49804688 750.46386719 C17.39177444 750.4708815 16.28550201 750.47789581 15.14570618 750.48512268 C11.5964445 750.50252522 8.04734965 750.50897468 4.49804688 750.51074219 C3.28563324 750.51141693 2.0732196 750.51209167 0.82406616 750.51278687 C-16.82645062 750.49716138 -34.05440092 750.1350175 -51.50195312 747.26074219 C-52.59217773 747.08913574 -53.68240234 746.9175293 -54.80566406 746.74072266 C-137.69414246 733.44863218 -220.15052934 692.02182309 -275.45117188 627.64746094 C-276.98115365 625.86685358 -278.52824648 624.10092201 -280.08398438 622.34277344 C-341.50195312 552.5371897 -341.50195312 552.5371897 -341.50195312 524.26074219 C-326.71625458 523.86237225 -311.93127193 523.56325013 -297.14128494 523.37993526 C-290.27253368 523.29252436 -283.40712878 523.17354786 -276.54052734 522.97827148 C-269.90756997 522.7897307 -263.27716059 522.69178197 -256.64141083 522.64782906 C-254.11646715 522.61653129 -251.59170348 522.55540245 -249.06824493 522.46333122 C-229.80231184 521.78866201 -229.80231184 521.78866201 -224.29103088 525.91679764 C-220.53562258 529.8929875 -217.96944735 534.33969262 -215.57065582 539.22427559 C-214.02272739 542.17393087 -212.08575025 544.53021956 -209.93945312 547.07324219 C-209.21628906 547.93304687 -208.493125 548.79285156 -207.74804688 549.67871094 C-195.14655684 564.16494557 -181.87436434 578.67730557 -166.50195312 590.26074219 C-165.96989258 590.66921387 -165.43783203 591.07768555 -164.88964844 591.49853516 C-129.10837439 618.91733014 -89.9983864 634.38663387 -46.50195312 645.26074219 C-46.50195312 572.66074219 -46.50195312 500.06074219 -46.50195312 425.26074219 C-114.30982772 425.58712719 -114.30982772 425.58712719 -182.11767578 425.91894531 C-190.88378609 425.96075873 -199.6498961 426.00221491 -208.41601562 426.04199219 C-209.56690186 426.04723593 -210.7177881 426.05247967 -211.90354967 426.05788231 C-264.10307325 426.2941003 -316.3020025 426.31759487 -368.50195312 426.26074219 C-368.82489119 424.38583472 -369.14482629 422.51040991 -369.46354675 420.63478088 C-369.64204257 419.59046182 -369.82053839 418.54614275 -370.00444317 417.47017765 C-371.4175991 408.35391236 -371.66019272 399.22402464 -371.66992188 390.01464844 C-371.67325027 388.88284653 -371.67657867 387.75104462 -371.68000793 386.58494568 C-371.68503752 384.20254925 -371.6874175 381.82014587 -371.68725586 379.43774414 C-371.68942856 375.8636458 -371.70758964 372.28986372 -371.7265625 368.71582031 C-371.81620059 331.88923713 -371.81620059 331.88923713 -368.50195312 325.26074219 C-262.24195313 325.26074219 -155.98195312 325.26074219 -46.50195312 325.26074219 C-46.50195312 252.66074219 -46.50195312 180.06074219 -46.50195312 105.26074219 C-67.93861149 110.61990678 -88.30045878 116.33834983 -108.50195312 125.26074219 C-109.27120117 125.5971875 -110.04044922 125.93363281 -110.83300781 126.28027344 C-151.79206766 144.34039469 -204.8385997 181.30657559 -223.89634705 223.33589172 C-226.8133704 226.61031497 -227.2177555 226.70835051 -231.34881592 226.98226929 C-233.40341266 226.99968356 -235.45844934 226.98366212 -237.51269531 226.94189453 C-239.19606239 226.94320877 -239.19606239 226.94320877 -240.91343689 226.94454956 C-244.62593996 226.94036662 -248.33664038 226.89367629 -252.04882812 226.84667969 C-254.62142957 226.83549019 -257.1940438 226.82694885 -259.7666626 226.82095337 C-265.84779283 226.80037897 -271.9281782 226.75308477 -278.00902772 226.69285643 C-284.93271808 226.62577012 -291.85643954 226.59279719 -298.78037405 226.56268382 C-313.02124823 226.49998381 -327.26157766 226.39446228 -341.50195312 226.26074219 C-340.39698912 223.71684031 -339.29020131 221.17375781 -338.18237305 218.63110352 C-337.87269341 217.91763008 -337.56301376 217.20415665 -337.24394989 216.46906281 C-334.64683093 210.51442976 -331.83749799 204.69932443 -328.81445312 198.94824219 C-328.30462891 197.97677246 -327.79480469 197.00530273 -327.26953125 196.00439453 C-304.53863372 153.31074864 -271.57385893 113.13178055 -233.50195312 83.26074219 C-232.21239361 82.21838803 -230.92337395 81.17536578 -229.63476562 80.13183594 C-197.16261061 54.08225613 -159.85618973 33.74651289 -120.50195312 20.26074219 C-119.5810791 19.94411621 -118.66020508 19.62749023 -117.71142578 19.30126953 C-98.59221002 12.80609511 -79.22253499 7.89198018 -59.31445312 4.51074219 C-58.15300781 4.31206543 -56.9915625 4.11338867 -55.79492188 3.90869141 C-37.21647651 0.9041119 -18.80836733 -0.06848985 0 0 Z " fill="#222222" transform="translate(371.501953125,-0.2607421875)"/>
<path d="M0 0 C1.44813915 0.47686368 2.89578367 0.95522964 4.34321594 1.43423462 C5.1494254 1.70046442 5.95563486 1.96669422 6.78627491 2.24099159 C9.09960821 3.03415215 11.28672618 3.94299824 13.48046875 5.0234375 C14.24045166 5.39766846 15.00043457 5.77189941 15.78344727 6.1574707 C16.57678467 6.55925537 17.37012207 6.96104004 18.1875 7.375 C19.4712854 8.02311646 19.4712854 8.02311646 20.78100586 8.68432617 C42.84181112 19.99545909 63.63441068 33.53352263 83 49 C83.92941406 49.73605469 84.85882812 50.47210938 85.81640625 51.23046875 C91.78820508 56.02999413 97.46714766 61.0870734 103.078125 66.296875 C105.79693008 68.81213317 108.54706969 71.28625299 111.3125 73.75 C117.3120158 79.14573067 122.88189394 84.74751374 128.140625 90.8671875 C129.39837046 92.30989552 130.6806258 93.73153876 131.984375 95.1328125 C179.19816361 145.96517615 209.28119246 213.54584306 220.8125 281.4375 C221.0074707 282.58387939 221.20244141 283.73025879 221.40332031 284.91137695 C224.52809439 304.43570384 225.37538319 323.80839319 225.3125 343.5625 C225.31067719 344.75243561 225.30885437 345.94237122 225.30697632 347.16836548 C225.26193466 364.63734129 224.85701731 381.73355787 222 399 C221.82307617 400.10617676 221.64615234 401.21235352 221.46386719 402.35205078 C216.72584644 431.38163383 209.25579073 459.78643961 198 487 C194.19439766 486.41933397 191.473423 485.33578266 188.17578125 483.3671875 C187.24330566 482.81619385 186.31083008 482.2652002 185.35009766 481.69750977 C184.34769043 481.09608154 183.3452832 480.49465332 182.3125 479.875 C180.13974019 478.58913841 177.96654843 477.30400648 175.79296875 476.01953125 C174.67067871 475.3538916 173.54838867 474.68825195 172.39208984 474.00244141 C166.99305702 470.81524785 161.55940937 467.68886384 156.125 464.5625 C153.96352101 463.31644209 151.80206284 462.07034804 149.640625 460.82421875 C145.64647466 458.52324084 141.65124147 456.22416038 137.65493774 453.92692566 C135.8749866 452.90350745 134.09539331 451.87946987 132.31591797 450.85522461 C130.08650663 449.57221373 127.85640624 448.29039912 125.62548828 447.01000977 C120.01164661 443.77819012 114.46723968 440.47438493 109 437 C110.18619842 431.41921886 111.54228061 425.9400425 113.10644531 420.45410156 C118.09012141 402.91941398 121.61899654 385.18978842 123 367 C123.10272217 365.65639404 123.10272217 365.65639404 123.20751953 364.28564453 C128.23473678 292.94761466 105.56356101 220.68845916 58.63232422 166.41845703 C46.841576 153.05782406 34.26791091 139.72064024 20 129 C19.39349609 128.54367188 18.78699219 128.08734375 18.16210938 127.6171875 C14.91779173 125.18474522 11.66055552 122.77004514 8.3828125 120.3828125 C7.85059082 119.99496582 7.31836914 119.60711914 6.77001953 119.20751953 C4.96202418 117.86111915 4.96202418 117.86111915 2.42485046 117.10560608 C0 115 0 115 -0.4542923 112.89075851 C-0.6193984 109.95061433 -0.61734924 107.04730389 -0.56762695 104.1027832 C-0.56835709 102.98068451 -0.56908722 101.85858582 -0.56983948 100.70248413 C-0.56634945 96.98476214 -0.52741859 93.26828501 -0.48828125 89.55078125 C-0.47895824 86.97674748 -0.47183971 84.40270486 -0.46684265 81.82865906 C-0.44968722 75.74051752 -0.41026126 69.65289154 -0.3600952 63.56494445 C-0.30422155 56.63399401 -0.27672035 49.70302223 -0.25161803 42.77190268 C-0.19934522 28.51436082 -0.1113907 14.25719634 0 0 Z " fill="#222222" transform="translate(525,31)"/>
<path d="M0 0 C4.53124396 1.65412401 8.61864057 3.89701726 12.8125 6.25 C13.59238281 6.68546143 14.37226562 7.12092285 15.17578125 7.56958008 C23.71933041 12.36448018 32.16816792 17.3211981 40.62109375 22.2734375 C46.13033218 25.49848261 51.65784854 28.69079197 57.19189453 31.87304688 C60.4836972 33.76715671 63.77157755 35.66791107 67.05859375 37.5703125 C70.68529698 39.6692836 74.32133257 41.74889391 77.97265625 43.8046875 C79.35705296 44.59846649 80.74119364 45.39269229 82.125 46.1875 C83.04841187 46.69470581 83.04841187 46.69470581 83.99047852 47.2121582 C85.6328125 48.16796875 85.6328125 48.16796875 88 50 C88 54.9330351 86.17418066 56.64522154 83.0625 60.125 C82.56250488 60.69903564 82.06250977 61.27307129 81.54736328 61.86450195 C80.04227084 63.58614585 78.52361721 65.2947461 77 67 C76.20207031 67.89847656 75.40414062 68.79695312 74.58203125 69.72265625 C73.12081675 71.35456129 71.65343392 72.9809659 70.1796875 74.6015625 C68.69637637 76.2337364 67.22274608 77.87474918 65.7578125 79.5234375 C58.30592481 87.90358802 50.52191122 95.71398147 42 103 C41.03964844 103.84949219 40.07929687 104.69898438 39.08984375 105.57421875 C-29.56830462 166 -29.56830462 166 -58 166 C-58.28074706 151.14465604 -58.49213522 136.28951806 -58.62174606 121.43208313 C-58.68353751 114.53275704 -58.76771611 107.6350822 -58.90527344 100.73681641 C-59.03799962 94.07763033 -59.10743377 87.42051205 -59.13852692 80.75994873 C-59.16067901 78.2208152 -59.20394082 75.68177427 -59.26876068 73.14337158 C-59.74504191 53.71689254 -59.74504191 53.71689254 -56.82577324 49.17182159 C-53.70927026 46.03656376 -50.07091051 44.52791417 -46 43 C-43.8797102 41.61806278 -43.8797102 41.61806278 -42.22265625 40.234375 C-41.69696045 39.82622559 -41.17126465 39.41807617 -40.62963867 38.99755859 C-40.11248291 38.58586426 -39.59532715 38.17416992 -39.0625 37.75 C-38.18911987 37.05704834 -38.18911987 37.05704834 -37.2980957 36.35009766 C-27.54562252 28.51067552 -18.67604778 19.75350956 -9.8125 10.9375 C-8.69717896 9.82930908 -8.69717896 9.82930908 -7.55932617 8.69873047 C-6.51869019 7.65483154 -6.51869019 7.65483154 -5.45703125 6.58984375 C-4.83803955 5.96972412 -4.21904785 5.34960449 -3.58129883 4.71069336 C-1.80746889 2.88177634 -1.80746889 2.88177634 0 0 Z " fill="#222222" transform="translate(583,553)"/>
</svg>
